<svg width="1920" height="1080" viewBox="0 0 1920 1080" fill="none" xmlns="http://www.w3.org/2000/svg">
<path d="M0 0H1920V1080H0V0Z" fill="url(#paint0_linear_590_1631)"/>
<path d="M1665.91 694.812C1653.2 665.752 1646.01 625.22 1642.28 577.749C1704.7 519.419 1758.36 455.827 1782.6 395.159C1777.65 455.163 1746.21 568.097 1665.91 694.812Z" fill="white" fill-opacity="0.2"/>
<path d="M1030.29 -77.9789C1201.48 -248.714 1370.55 -274.648 1480.75 -229.263C1590.96 -183.877 1639.29 -100.672 1645.53 92.7553C1647.57 155.966 1645.09 229.875 1642.58 304.748C1635.87 505.067 1628.92 712.292 1707.59 740.035C1775 763.808 2008.47 698.324 2249 479.61C2207.27 617.207 2059.32 927.748 1829.57 1053.41C1780.59 1080.2 1531.77 1166.98 1426.35 958.718C1402.88 912.355 1386.52 851.369 1381.05 771.842C1379.95 755.874 1379.29 739.159 1379.1 721.665C1380.53 649.985 1383.97 483.573 1413.15 304.64C1442.33 125.707 1315.18 -13.2294 1160.94 199.385C1119.69 256.239 1082.77 330.86 1038.38 420.6C1008.25 481.492 974.687 549.345 933.987 623.33C909.924 667.074 888.103 711.663 867.767 756.403C799.294 599.627 699.878 551.7 612.808 542.388C765.427 226.85 939.235 12.8245 1030.29 -77.9789Z" fill="white" fill-opacity="0.15"/>
<path d="M497.335 793.287C377.414 1027.63 225.227 1205.44 126.544 1320.73C82.6133 1372.06 49.2856 1411 34.1287 1437.02C-43.2836 1569.93 34.1286 1665.03 109.028 1685.56C291.297 1735.52 502.784 1528.87 669.701 1214.42C701.049 1155.36 729.149 1090.24 757.145 1021.93C742.028 1001.29 729.169 977.267 719.037 949.508C689.618 876.668 618.923 765.226 497.335 793.287Z" fill="white" fill-opacity="0.15"/>
<path d="M506.576 546.898C505.343 547.103 504.118 547.312 502.9 547.524C394.831 576.7 332.772 630.73 298.533 677.196C298.233 677.657 297.935 678.118 297.639 678.579C251.495 750.326 254.779 807.034 272.854 832.803C281.686 844.101 292.767 850.842 305.274 854.117C345.474 866.02 395.955 842.713 448.267 811.229C448.289 811.216 448.31 811.204 448.331 811.191C600.228 736.184 685.867 867.382 719.037 949.508C729.169 977.267 742.028 1001.29 757.145 1021.93C775.411 1046.86 796.972 1066.84 821 1082.48C851.687 1102.45 886.397 1115.33 923.404 1122.37C1089.23 1153.93 1301.17 1068.35 1403.83 978.683C1406.96 976.268 1410.07 973.848 1413.15 971.422C1417.87 967.713 1422.53 963.991 1427.13 960.258C1403.24 913.708 1386.58 852.252 1381.05 771.842C1376.49 774.512 1371.91 777.189 1367.29 779.868C1252.81 846.305 1119.65 913.496 984.527 877.202C920.046 859.786 897.535 816.948 879.194 782.045C878.024 779.818 876.871 777.624 875.725 775.47C777.43 528.898 606.64 530.166 506.576 546.898Z" fill="white" fill-opacity="0.2"/>
<defs>
<linearGradient id="paint0_linear_590_1631" x1="1124.5" y1="-124.029" x2="1124.57" y2="2089.49" gradientUnits="userSpaceOnUse">
<stop stop-color="#4399DD"/>
<stop offset="1" stop-color="#87B1CE"/>
</linearGradient>
</defs>
</svg>
